<svg width="43" height="68" viewBox="0 0 43 68" fill="none" xmlns="http://www.w3.org/2000/svg">
<path d="M36.4303 44.6749C35.8263 44.6779 35.2307 44.8166 34.688 45.0804L28.859 39.2817H24.2314V41.9783H27.7364L32.7713 46.9869C32.5065 47.5268 32.3672 48.1191 32.364 48.7198C32.364 49.5198 32.6025 50.3018 33.0493 50.967C33.4961 51.6322 34.1312 52.1506 34.8742 52.4568C35.6172 52.7629 36.4348 52.843 37.2236 52.687C38.0124 52.5309 38.7369 52.1456 39.3056 51.58C39.8743 51.0143 40.2616 50.2935 40.4185 49.5089C40.5754 48.7243 40.4949 47.911 40.1871 47.1719C39.8793 46.4328 39.3581 45.801 38.6894 45.3566C38.0207 44.9121 37.2346 44.6749 36.4303 44.6749ZM36.4303 50.0681C36.1622 50.0681 35.9002 49.989 35.6773 49.8408C35.4544 49.6927 35.2806 49.4821 35.1781 49.2357C35.0755 48.9894 35.0486 48.7183 35.1009 48.4567C35.1532 48.1952 35.2823 47.9549 35.4719 47.7664C35.6614 47.5778 35.903 47.4494 36.1659 47.3974C36.4288 47.3454 36.7013 47.3721 36.949 47.4741C37.1967 47.5762 37.4084 47.749 37.5573 47.9707C37.7063 48.1924 37.7858 48.4531 37.7858 48.7198C37.7854 49.0773 37.6425 49.42 37.3884 49.6728C37.1343 49.9256 36.7897 50.0678 36.4303 50.0681Z" fill="#4452FE"/>
<path d="M36.4304 29.8652C35.5922 29.8677 34.7753 30.1232 34.092 30.5966C33.4086 31.07 32.8923 31.7382 32.6139 32.5094H24.2314V35.1536H32.6139C32.8636 35.8372 33.3013 36.4407 33.8789 36.8982C34.4565 37.3556 35.1519 37.6494 35.8891 37.7475C36.6263 37.8455 37.377 37.744 38.0591 37.4541C38.7412 37.1642 39.3284 36.6969 39.7567 36.1035C40.185 35.51 40.4378 34.8132 40.4875 34.0891C40.5373 33.365 40.382 32.6414 40.0387 31.9976C39.6954 31.3537 39.1772 30.8143 38.5409 30.4382C37.9045 30.0621 37.1744 29.8639 36.4304 29.8652ZM36.4304 35.1536C36.1623 35.1536 35.9003 35.076 35.6774 34.9308C35.4545 34.7855 35.2807 34.579 35.1781 34.3374C35.0755 34.0958 35.0487 33.83 35.101 33.5736C35.1533 33.3171 35.2824 33.0815 35.472 32.8966C35.6615 32.7117 35.903 32.5858 36.166 32.5348C36.4289 32.4838 36.7014 32.51 36.9491 32.61C37.1968 32.7101 37.4085 32.8795 37.5574 33.097C37.7063 33.3144 37.7858 33.57 37.7858 33.8315C37.7855 34.182 37.6426 34.5181 37.3885 34.766C37.1344 35.0139 36.7898 35.1533 36.4304 35.1536Z" fill="#4452FE"/>
<path d="M36.4302 14.8841C35.3521 14.8853 34.3185 15.3118 33.5562 16.0701C32.7939 16.8284 32.3651 17.8566 32.3639 18.929C32.3686 19.5749 32.5305 20.2101 32.8358 20.7802L27.7497 25.6705H24.2314V28.3671H28.8457L34.808 22.6336C35.3619 22.8738 35.9627 22.9881 36.5666 22.9682C37.1704 22.9483 37.7623 22.7947 38.299 22.5187C38.8357 22.2426 39.3038 21.851 39.6692 21.3723C40.0346 20.8936 40.2881 20.3399 40.4113 19.7515C40.5344 19.163 40.5242 18.5547 40.3812 17.9707C40.2383 17.3867 39.9662 16.8418 39.5849 16.3756C39.2036 15.9093 38.7225 15.5335 38.1768 15.2755C37.6311 15.0175 37.0344 14.8838 36.4302 14.8841ZM36.4302 20.2773C36.1621 20.2773 35.9001 20.1982 35.6772 20.0501C35.4543 19.9019 35.2805 19.6913 35.1779 19.445C35.0754 19.1986 35.0485 18.9275 35.1008 18.666C35.1531 18.4044 35.2822 18.1642 35.4718 17.9756C35.6613 17.787 35.9028 17.6586 36.1658 17.6066C36.4287 17.5546 36.7012 17.5813 36.9489 17.6833C37.1966 17.7854 37.4082 17.9582 37.5572 18.1799C37.7061 18.4016 37.7856 18.6623 37.7856 18.929C37.7853 19.2865 37.6424 19.6292 37.3883 19.882C37.1341 20.1348 36.7896 20.277 36.4302 20.2773Z" fill="#4452FE"/>
<path d="M24.3028 20.3592H27.0137V17.6662H24.3028C23.5303 17.6688 22.7675 17.8363 22.0659 18.1575C21.3643 18.4786 20.7404 18.9458 20.2365 19.5275C19.7326 18.9458 19.1087 18.4786 18.4072 18.1575C17.7056 17.8363 16.9427 17.6688 16.1702 17.6662H14.8148C11.5805 17.6698 8.47977 18.9477 6.19281 21.2196C3.90585 23.4915 2.61946 26.5719 2.61588 29.7848V37.8639C2.61946 41.0769 3.90585 44.1573 6.19281 46.4292C8.47977 48.7011 11.5805 49.979 14.8148 49.9826H16.1702C16.9427 49.98 17.7056 49.8125 18.4072 49.4913C19.1087 49.1702 19.7326 48.703 20.2365 48.1213C20.7404 48.703 21.3643 49.1702 22.0659 49.4913C22.7675 49.8125 23.5303 49.98 24.3028 49.9826H27.0137V47.2896H24.3028C23.5841 47.2887 22.8951 47.0047 22.3869 46.4999C21.8786 45.995 21.5928 45.3105 21.5919 44.5965V23.0523C21.5928 22.3383 21.8786 21.6538 22.3869 21.1489C22.8951 20.644 23.5841 20.3601 24.3028 20.3592ZM16.1702 47.2896H14.8148C12.5355 47.2856 10.3337 46.4672 8.61166 44.9839C6.88957 43.5006 5.76209 41.4513 5.43518 39.2105H8.03761V36.5174H5.32674V31.1314H9.39304C10.4711 31.1302 11.5047 30.7042 12.267 29.9469C13.0294 29.1896 13.4582 28.1628 13.4593 27.0918V24.3988H10.7485V27.0918C10.7482 27.4488 10.6052 27.7911 10.3511 28.0436C10.097 28.296 9.75243 28.438 9.39304 28.4383H5.43518C5.76209 26.1975 6.88957 24.1482 8.61166 22.6649C10.3337 21.1816 12.5355 20.3632 14.8148 20.3592H16.1702C16.8889 20.3601 17.578 20.644 18.0862 21.1489C18.5944 21.6538 18.8803 22.3383 18.8811 23.0523V28.4383H16.1702V31.1314H18.8811V36.5174H16.1702C15.0921 36.5186 14.0585 36.9446 13.2962 37.7019C12.5339 38.4592 12.1051 39.486 12.1039 40.557V43.25H14.8148V40.557C14.8151 40.2 14.958 39.8577 15.2121 39.6052C15.4663 39.3528 15.8108 39.2108 16.1702 39.2105H18.8811V44.5965C18.8803 45.3105 18.5944 45.995 18.0862 46.4999C17.578 47.0047 16.8889 47.2887 16.1702 47.2896Z" fill="#4452FE"/>
</svg>
