<svg width="65" height="65" viewBox="0 0 65 65" fill="none" xmlns="http://www.w3.org/2000/svg">
<g id="Group 56272">
<path id="Vector" fill-rule="evenodd" clip-rule="evenodd" d="M49.8968 43.0634L13.4924 64.7403L60.6294 61.5328L64.2598 13.8704L49.8968 43.0634Z" fill="url(#paint0_linear_26_79)"/>
<path id="Vector_2" fill-rule="evenodd" clip-rule="evenodd" d="M60.7072 61.5012L56.6556 33.4603L45.6202 48.0728L60.7072 61.5012Z" fill="url(#paint1_linear_26_79)"/>
<path id="Vector_3" fill-rule="evenodd" clip-rule="evenodd" d="M60.7617 61.5004L31.0805 59.1641L13.6507 64.6795L60.7617 61.5004Z" fill="url(#paint2_linear_26_79)"/>
<path id="Vector_4" fill-rule="evenodd" clip-rule="evenodd" d="M13.692 64.6868L21.1067 40.3279L4.79044 43.8266L13.692 64.6868Z" fill="url(#paint3_linear_26_79)"/>
<path id="Vector_5" fill-rule="evenodd" clip-rule="evenodd" d="M62.7118 21.7323L44.2552 6.61621L39.1157 23.2782L62.7118 21.7323Z" fill="url(#paint4_linear_26_79)"/>
<path id="Vector_6" fill-rule="evenodd" clip-rule="evenodd" d="M54.0793 1.22632L43.2242 7.24175L36.3759 1.14563L54.0793 1.22632Z" fill="url(#paint5_linear_26_79)"/>
<path id="Vector_7" fill-rule="evenodd" clip-rule="evenodd" d="M0.496521 51.9967L5.04385 43.6804L1.36545 33.7731L0.496521 51.9967Z" fill="url(#paint6_linear_26_79)"/>
<path id="Vector_8" fill-rule="evenodd" clip-rule="evenodd" d="M1.12186 33.4598L4.82282 43.987L20.9043 40.369L39.2642 23.2586L44.4454 6.75504L36.287 0.978394L22.4165 6.18384C18.0464 10.2597 9.56646 18.3245 9.26072 18.4762C8.95822 18.6311 3.66104 28.6707 1.12186 33.4598Z" fill="white"/>
<path id="Vector_9" d="M21.014 40.2673L39.2642 23.2589L39.2724 23.2329L45.617 48.1537L21.014 40.2673Z" fill="url(#paint7_linear_26_79)"/>
<path id="Vector_10" fill-rule="evenodd" clip-rule="evenodd" d="M14.1158 14.5485C23.5869 5.13156 35.7969 -0.432094 40.4827 4.30862C45.1655 9.04934 40.1995 20.5705 30.7283 29.9839C21.257 39.3977 9.19834 45.2681 4.51584 40.5273C-0.169888 35.7898 4.64458 23.9621 14.1158 14.5485Z" fill="url(#paint8_linear_26_79)"/>
<path id="Vector_11" fill-rule="evenodd" clip-rule="evenodd" d="M13.6922 64.6758L21.049 40.2396L45.4818 48.1108C36.6477 56.4175 26.8225 63.4399 13.6922 64.6758Z" fill="url(#paint9_linear_26_79)"/>
<path id="Vector_12" fill-rule="evenodd" clip-rule="evenodd" d="M39.2946 23.2101L45.567 48.124C52.9465 40.3431 59.5695 31.9782 62.8132 21.632L39.2946 23.2101Z" fill="url(#paint10_linear_26_79)"/>
<path id="Vector_13" fill-rule="evenodd" clip-rule="evenodd" d="M62.7492 21.7589C65.2593 14.1621 65.8385 3.26393 54.0018 1.24048L44.2891 6.6202L62.7492 21.7589Z" fill="url(#paint11_linear_26_79)"/>
<path id="Vector_14" fill-rule="evenodd" clip-rule="evenodd" d="M0.496521 51.8874C0.84408 64.4253 9.86475 64.612 13.7073 64.722L4.83147 43.9354L0.496521 51.8874Z" fill="#9E1209"/>
<path id="Vector_15" fill-rule="evenodd" clip-rule="evenodd" d="M39.3312 23.2492C45.0015 26.7441 56.4299 33.7633 56.6616 33.8925C57.0216 34.0957 61.5885 26.1697 62.625 21.6904L39.3312 23.2492Z" fill="url(#paint12_radial_26_79)"/>
<path id="Vector_16" fill-rule="evenodd" clip-rule="evenodd" d="M21.0397 40.2396L30.8745 59.2672C36.69 56.1045 41.2437 52.2512 45.4145 48.1236L21.0397 40.2396Z" fill="url(#paint13_radial_26_79)"/>
<path id="Vector_17" fill-rule="evenodd" clip-rule="evenodd" d="M4.79322 43.9604L3.39972 60.5998C6.02902 64.2013 9.6463 64.5143 13.4406 64.2337C10.6954 57.3825 5.21158 43.6831 4.79322 43.9604Z" fill="url(#paint14_linear_26_79)"/>
<path id="Vector_18" fill-rule="evenodd" clip-rule="evenodd" d="M44.2321 6.6621L63.77 9.41165C62.7272 4.98074 59.525 2.12146 54.0669 1.22754L44.2321 6.6621Z" fill="url(#paint15_linear_26_79)"/>
</g>
<defs>
<linearGradient id="paint0_linear_26_79" x1="56.518" y1="70.5392" x2="43.0099" y2="46.7563" gradientUnits="userSpaceOnUse">
<stop stop-color="#FB7655"/>
<stop offset="0.41" stop-color="#E42B1E"/>
<stop offset="0.99" stop-color="#990000"/>
<stop offset="1" stop-color="#990000"/>
</linearGradient>
<linearGradient id="paint1_linear_26_79" x1="63.2192" y1="50.5346" x2="45.8537" y2="38.9134" gradientUnits="userSpaceOnUse">
<stop stop-color="#871101"/>
<stop offset="0.99" stop-color="#911209"/>
<stop offset="1" stop-color="#911209"/>
</linearGradient>
<linearGradient id="paint2_linear_26_79" x1="49.3488" y1="71.2611" x2="31.9838" y2="59.6404" gradientUnits="userSpaceOnUse">
<stop stop-color="#871101"/>
<stop offset="0.99" stop-color="#911209"/>
<stop offset="1" stop-color="#911209"/>
</linearGradient>
<linearGradient id="paint3_linear_26_79" x1="12.9507" y1="42.0901" x2="15.6527" y2="59.602" gradientUnits="userSpaceOnUse">
<stop stop-color="white"/>
<stop offset="0.23" stop-color="#E57252"/>
<stop offset="0.46" stop-color="#DE3B20"/>
<stop offset="0.99" stop-color="#A60003"/>
<stop offset="1" stop-color="#A60003"/>
</linearGradient>
<linearGradient id="paint4_linear_26_79" x1="47.8382" y1="9.2144" x2="50.8183" y2="22.0211" gradientUnits="userSpaceOnUse">
<stop stop-color="white"/>
<stop offset="0.18" stop-color="#E46342"/>
<stop offset="0.4" stop-color="#C82410"/>
<stop offset="0.99" stop-color="#A80D00"/>
<stop offset="1" stop-color="#A80D00"/>
</linearGradient>
<linearGradient id="paint5_linear_26_79" x1="38.785" y1="4.70246" x2="51.5732" y2="-1.67384" gradientUnits="userSpaceOnUse">
<stop stop-color="white"/>
<stop offset="0.54" stop-color="#C81F11"/>
<stop offset="0.99" stop-color="#BF0905"/>
<stop offset="1" stop-color="#BF0905"/>
</linearGradient>
<linearGradient id="paint6_linear_26_79" x1="1.7527" y1="37.6246" x2="2.80985" y2="48.1794" gradientUnits="userSpaceOnUse">
<stop stop-color="white"/>
<stop offset="0.31" stop-color="#DE4024"/>
<stop offset="0.99" stop-color="#BF190B"/>
<stop offset="1" stop-color="#BF190B"/>
</linearGradient>
<linearGradient id="paint7_linear_26_79" x1="31.4352" y1="25.7361" x2="32.431" y2="43.6101" gradientUnits="userSpaceOnUse">
<stop stop-color="white"/>
<stop offset="0.23" stop-color="#E4714E"/>
<stop offset="0.56" stop-color="#BE1A0D"/>
<stop offset="0.99" stop-color="#A80D00"/>
<stop offset="1" stop-color="#A80D00"/>
</linearGradient>
<linearGradient id="paint8_linear_26_79" x1="-5.47533" y1="51.033" x2="44.0885" y2="0.209301" gradientUnits="userSpaceOnUse">
<stop stop-color="#BD0012"/>
<stop offset="0.07" stop-color="white"/>
<stop offset="0.17" stop-color="white"/>
<stop offset="0.27" stop-color="#C82F1C"/>
<stop offset="0.33" stop-color="#820C01"/>
<stop offset="0.46" stop-color="#A31601"/>
<stop offset="0.72" stop-color="#B31301"/>
<stop offset="0.99" stop-color="#E82609"/>
<stop offset="1" stop-color="#E82609"/>
</linearGradient>
<linearGradient id="paint9_linear_26_79" x1="32.3818" y1="56.1734" x2="17.4906" y2="52.5083" gradientUnits="userSpaceOnUse">
<stop stop-color="#8C0C01"/>
<stop offset="0.54" stop-color="#990C00"/>
<stop offset="0.99" stop-color="#A80D0E"/>
<stop offset="1" stop-color="#A80D0E"/>
</linearGradient>
<linearGradient id="paint10_linear_26_79" x1="57.9494" y1="38.2567" x2="44.6919" y2="26.4075" gradientUnits="userSpaceOnUse">
<stop stop-color="#7E110B"/>
<stop offset="0.99" stop-color="#9E0C00"/>
<stop offset="1" stop-color="#9E0C00"/>
</linearGradient>
<linearGradient id="paint11_linear_26_79" x1="62.8082" y1="16.4492" x2="56.2013" y2="9.40543" gradientUnits="userSpaceOnUse">
<stop stop-color="#79130D"/>
<stop offset="0.99" stop-color="#9E120B"/>
<stop offset="1" stop-color="#9E120B"/>
</linearGradient>
<radialGradient id="paint12_radial_26_79" cx="0" cy="0" r="1" gradientUnits="userSpaceOnUse" gradientTransform="translate(46.7853 26.5983) scale(16.2062 16.2513)">
<stop stop-color="#A80D00"/>
<stop offset="0.99" stop-color="#7E0E08"/>
<stop offset="1" stop-color="#7E0E08"/>
</radialGradient>
<radialGradient id="paint13_radial_26_79" cx="0" cy="0" r="1" gradientUnits="userSpaceOnUse" gradientTransform="translate(24.3423 48.0144) scale(21.5439 21.6039)">
<stop stop-color="#A30C00"/>
<stop offset="0.99" stop-color="#800E08"/>
<stop offset="1" stop-color="#800E08"/>
</radialGradient>
<linearGradient id="paint14_linear_26_79" x1="9.07985" y1="64.6615" x2="3.68394" y2="46.4057" gradientUnits="userSpaceOnUse">
<stop stop-color="#8B2114"/>
<stop offset="0.43" stop-color="#9E100A"/>
<stop offset="0.99" stop-color="#B3100C"/>
<stop offset="1" stop-color="#B3100C"/>
</linearGradient>
<linearGradient id="paint15_linear_26_79" x1="50.2635" y1="4.14101" x2="62.3098" y2="9.44369" gradientUnits="userSpaceOnUse">
<stop stop-color="#B31000"/>
<stop offset="0.44" stop-color="#910F08"/>
<stop offset="0.99" stop-color="#791C12"/>
<stop offset="1" stop-color="#791C12"/>
</linearGradient>
</defs>
</svg>
