<svg width="54" height="65" viewBox="0 0 54 65" fill="none" xmlns="http://www.w3.org/2000/svg">
<path d="M27.0706 18.3846C18.0923 18.3846 9.95044 23.2616 3.94254 31.1831C3.4523 31.8321 3.4523 32.7388 3.94254 33.3878C9.95044 41.3188 18.0923 46.1958 27.0706 46.1958C36.0488 46.1958 44.1907 41.3188 50.1986 33.3973C50.6888 32.7483 50.6888 31.8416 50.1986 31.1926C44.1907 23.2616 36.0488 18.3846 27.0706 18.3846ZM27.7146 42.0823C21.7548 42.4546 16.8331 37.5776 17.208 31.6507C17.5156 26.7642 21.5048 22.8035 26.4265 22.498C32.3863 22.1258 37.308 27.0028 36.9331 32.9296C36.6159 37.8066 32.6267 41.7674 27.7146 42.0823ZM27.4166 37.5585C24.206 37.7589 21.5529 35.1343 21.7644 31.9466C21.9278 29.3125 24.081 27.1842 26.7341 27.0124C29.9447 26.8119 32.5978 29.4365 32.3863 32.6242C32.2133 35.2679 30.0601 37.3962 27.4166 37.5585Z" fill="#4452FE"/>
</svg>
