<svg width="63" height="62" viewBox="0 0 63 62" fill="none" xmlns="http://www.w3.org/2000/svg">
<g id="Group">
<path id="Vector" d="M62.0967 0.130615H0.639313V61.588H62.0967V0.130615Z" fill="#F1DC50"/>
<path id="Vector_2" d="M31.368 28.2986C31.368 40.46 31.368 47.2886 31.368 48.7844C31.368 51.0281 30.0291 53.9058 26.2466 53.9058C20.1383 53.9058 19.8448 48.7844 19.8448 48.7844M53.8767 34.7415C52.34 32.1534 50.303 30.8593 47.7657 30.8593C43.8038 30.8593 41.6109 33.42 41.6109 35.9808C41.6109 38.5415 42.8913 41.1022 48.0343 42.3826C51.307 43.1973 54.4145 44.9433 54.4145 48.7844C54.4145 52.6255 51.046 53.9058 48.0127 53.9058C44.1362 53.9058 41.5755 52.1987 40.3305 48.7844" stroke="#333333" stroke-width="8.56518"/>
</g>
</svg>
