<svg width="62" height="62" viewBox="0 0 62 62" fill="none" xmlns="http://www.w3.org/2000/svg">
<path id="Vector" d="M45.4306 57.8435C45.2037 57.9649 45.2227 58.0035 45.4401 57.8917C45.5107 57.8628 45.5698 57.8223 45.6213 57.7741C45.6213 57.7337 45.6213 57.7337 45.4306 57.8435ZM45.8883 57.593C45.7796 57.6836 45.7796 57.6836 45.9093 57.6238C45.9779 57.5834 46.0389 57.5448 46.0389 57.5332C46.0389 57.4812 46.0084 57.4928 45.8883 57.593ZM46.1858 57.4118C46.0771 57.5024 46.0771 57.5024 46.2068 57.4427C46.2773 57.4022 46.3364 57.3598 46.3364 57.3502C46.3364 57.302 46.3059 57.3116 46.1858 57.4118ZM46.4871 57.2326C46.3784 57.3232 46.3784 57.3232 46.5042 57.2615C46.5748 57.223 46.6339 57.1825 46.6339 57.1709C46.6339 57.1227 46.6034 57.1324 46.4871 57.2326ZM46.8933 56.9609C46.6854 57.1016 46.6129 57.1921 46.8037 57.0919C46.9314 57.0129 47.1488 56.8394 47.1107 56.8394C47.0287 56.8703 46.96 56.9223 46.8914 56.9609H46.8933ZM28.6563 0.0389453C28.5171 0.0485813 28.0995 0.0871254 27.7333 0.117961C19.0602 0.911969 10.9457 5.62977 5.80248 12.8973C2.9591 16.8808 1.11309 21.508 0.417022 26.3665C0.171015 28.0624 0.140503 28.5635 0.140503 30.8627C0.140503 33.1599 0.171015 33.6532 0.417022 35.3492C2.07805 46.9336 10.2325 56.6583 21.2857 60.2622C23.2747 60.9039 25.3591 61.3472 27.7333 61.6189C28.6563 61.7191 32.6478 61.7191 33.5708 61.6189C37.6747 61.1564 41.1398 60.133 44.5686 58.3658C45.095 58.096 45.1941 58.0247 45.1236 57.9649C43.4454 55.7275 41.7977 53.488 40.1481 51.2294L35.2718 44.5747L29.1636 35.4301C27.1269 32.3697 25.0826 29.317 23.0058 26.2875C22.9848 26.2875 22.9581 30.3519 22.9467 35.3087C22.9257 43.9908 22.9257 44.3435 22.817 44.5439C22.7083 44.7848 22.5291 44.9852 22.2907 45.097C22.1019 45.1876 21.9322 45.2068 21.0301 45.2068H19.9984L19.7295 45.0372C19.5617 44.9274 19.4225 44.7751 19.3329 44.5959L19.2032 44.3242L19.2127 32.2387L19.2337 20.1532L19.4225 19.9123C19.5426 19.7639 19.6914 19.6425 19.8592 19.5519C20.109 19.4305 20.2082 19.4112 21.2399 19.4112C22.4509 19.4112 22.6511 19.4594 22.9696 19.8121C25.4411 23.5354 27.905 27.2684 30.3288 31.013C34.2935 37.0875 39.7057 45.3764 42.366 49.4428L47.2041 56.8414L47.4425 56.6814C49.7672 55.1146 51.8821 53.2491 53.7071 51.1214C57.5517 46.6734 60.0461 41.2021 60.8909 35.3627C61.1369 33.6667 61.1674 33.1637 61.1674 30.8665C61.1674 28.5674 61.1369 28.0759 60.8909 26.38C59.2299 14.7956 51.0754 5.07088 40.0223 1.46508C37.955 0.804046 35.8287 0.35308 33.6756 0.121815C33.0978 0.0620717 29.1541 -0.00923483 28.6583 0.0427997L28.6563 0.0389453ZM41.1417 18.6885C41.4296 18.8273 41.647 19.0894 41.7462 19.39C41.7977 19.5519 41.8072 22.9033 41.7977 30.4522L41.7767 41.2908L39.8907 38.3614L37.9932 35.4301V27.5614C37.9932 22.46 38.0141 19.6001 38.0408 19.4594C38.1305 19.1375 38.3479 18.8677 38.6377 18.6981C38.8742 18.5767 38.9658 18.5671 39.9097 18.5671C40.7927 18.5671 40.9433 18.5767 41.1417 18.6885Z" fill="white"/>
</svg>
