<svg width="71" height="64" viewBox="0 0 71 64" fill="none" xmlns="http://www.w3.org/2000/svg">
<g id="Group 56271">
<path id="Vector" d="M58.0958 20.8359C57.347 20.5801 56.5929 20.3419 55.8334 20.1213C55.9593 19.6088 56.0755 19.0933 56.1819 18.5749C57.8952 10.2428 56.775 3.53017 52.9515 1.32046C49.2906 -0.799925 43.2868 1.40978 37.2302 6.69317C36.6347 7.21448 36.0514 7.75141 35.4803 8.30396C35.0996 7.93689 34.7091 7.57764 34.3089 7.22619C27.9609 1.57672 21.5983 -0.802854 17.7792 1.41418C14.1184 3.53895 13.0303 9.84885 14.5723 17.7461C14.7266 18.5271 14.8998 19.3047 15.0921 20.0788C14.1916 20.3351 13.3217 20.6089 12.49 20.8989C5.05694 23.4981 0.30365 27.5734 0.30365 31.7995C0.30365 36.1662 5.40546 40.5446 13.1563 43.1995C13.785 43.4133 14.4195 43.612 15.0599 43.7955C14.852 44.6243 14.668 45.4624 14.5079 46.3098C13.0435 54.0708 14.1857 60.2314 17.8393 62.343C21.6129 64.5234 27.9433 62.2829 34.1141 56.8795C34.6022 56.4519 35.0903 56.0004 35.5784 55.5249C36.1954 56.1214 36.83 56.7003 37.4821 57.2617C43.4567 62.4133 49.3565 64.4941 53.0042 62.3767C56.775 60.1889 58.0006 53.57 56.4089 45.5176C56.2868 44.9025 56.1463 44.2748 55.9871 43.6344C56.4323 43.5026 56.8682 43.3664 57.2948 43.2258C65.3487 40.5505 70.5955 36.2248 70.5955 31.8039C70.5926 27.5573 65.687 23.4556 58.0958 20.8359ZM39.2057 8.96292C44.3939 4.4366 49.2438 2.65009 51.455 3.92701C53.8082 5.28739 54.7234 10.7729 53.2444 17.9672C53.1468 18.4358 53.0413 18.9029 52.9281 19.3686C49.8319 18.6644 46.6922 18.1673 43.5299 17.8808C41.7193 15.2726 39.7344 12.7898 37.589 10.4492C38.1142 9.93964 38.6521 9.4442 39.2027 8.96292H39.2057ZM21.0579 35.4106C21.6935 36.6407 22.3578 37.8556 23.0509 39.0554C23.7567 40.2796 24.4923 41.4857 25.2577 42.6738C23.0818 42.4372 20.9195 42.0887 18.7794 41.6297C19.4003 39.6206 20.1647 37.5339 21.0579 35.4106ZM21.0579 28.3334C20.1793 26.2555 19.4354 24.2112 18.8248 22.2373C20.8309 21.7877 22.9689 21.4202 25.1976 21.1419C24.4508 22.3076 23.7323 23.4903 23.0421 24.6901C22.3519 25.8899 21.6891 27.1043 21.0535 28.3334H21.0579ZM22.6541 31.8727C23.5795 29.9427 24.5763 28.0498 25.6443 26.194C26.7113 24.3391 27.8472 22.5267 29.0518 20.7568C31.1429 20.5987 33.2867 20.5152 35.4525 20.5152C37.6183 20.5152 39.7753 20.5987 41.8649 20.7583C43.0569 22.5243 44.1859 24.3303 45.252 26.1764C46.318 28.0224 47.3279 29.9066 48.2817 31.8288C47.3406 33.7656 46.3331 35.6664 45.2593 37.531C44.1942 39.3858 43.0715 41.2036 41.8913 42.9842C39.8046 43.1307 37.6446 43.2112 35.4481 43.2112C33.2516 43.2112 31.1327 43.1424 29.084 43.0091C27.8706 41.2334 26.7255 39.4132 25.6487 37.5486C24.5719 35.6839 23.5722 33.792 22.6497 31.8727H22.6541ZM47.8585 39.0349C48.5663 37.8068 49.2457 36.5626 49.8969 35.3022C50.7895 37.3261 51.5774 39.3945 52.2574 41.4994C50.0922 41.9869 47.9029 42.3609 45.6986 42.6196C46.4425 41.4393 47.1625 40.2444 47.8585 39.0349ZM49.8676 28.3348C49.2194 27.0999 48.5453 25.8796 47.8453 24.674C47.162 23.4849 46.4498 22.3105 45.7088 21.1507C47.9508 21.4348 50.1019 21.8126 52.1183 22.2739C51.47 24.3306 50.7188 26.3535 49.8676 28.3348ZM35.4818 12.6004C36.944 14.1981 38.3247 15.8686 39.6186 17.6055C36.851 17.4737 34.0814 17.4737 31.3099 17.6055C32.6761 15.7985 34.0746 14.1218 35.4818 12.6004ZM19.2905 4.01633C21.6422 2.65155 26.8421 4.60207 32.3232 9.47398C32.6732 9.78588 33.0261 10.1124 33.3775 10.4507C31.2211 12.7909 29.2222 15.2716 27.3942 17.8764C24.2389 18.1607 21.1054 18.6499 18.0135 19.3408C17.8349 18.6223 17.6738 17.8989 17.5303 17.1706C16.2051 10.4009 17.0822 5.29764 19.2905 4.01633ZM15.8624 40.8961C15.2767 40.7291 14.6982 40.548 14.1271 40.3528C10.7006 39.1813 7.86996 37.6525 5.92677 35.9876C4.18711 34.4954 3.30557 33.0061 3.30557 31.7995C3.30557 29.2354 7.12168 25.9641 13.4858 23.7456C14.2853 23.4673 15.0917 23.213 15.9049 22.9826C16.85 26.0201 17.9947 28.9919 19.3315 31.8786C17.9788 34.8052 16.8199 37.8175 15.8624 40.8961ZM32.1358 54.6127C29.4077 57.0025 26.6752 58.6967 24.2663 59.5505C22.102 60.3163 20.3785 60.3383 19.3373 59.7364C17.1203 58.4551 16.1977 53.5071 17.4556 46.8706C17.605 46.0896 17.7758 45.3087 17.9681 44.5277C21.0909 45.2004 24.2559 45.6598 27.441 45.9027C29.2869 48.5211 31.3023 51.0158 33.4742 53.3709C33.0378 53.7999 32.5912 54.2129 32.1358 54.6127ZM35.5653 51.2124C34.1419 49.6734 32.7215 47.9704 31.3362 46.1399C32.6824 46.1926 34.0531 46.219 35.4481 46.219C36.8803 46.219 38.2977 46.1882 39.6947 46.1253C38.4056 47.89 37.0273 49.588 35.5653 51.2124ZM53.7994 55.399C53.3806 57.66 52.5386 59.1683 51.4974 59.7716C49.2819 61.0573 44.5447 59.3865 39.437 54.9802C38.8513 54.4765 38.2655 53.9361 37.6695 53.3694C39.7991 51.0052 41.7673 48.5004 43.5606 45.8719C46.7634 45.6006 49.9437 45.1089 53.0789 44.4003C53.2224 44.9801 53.3493 45.5483 53.4597 46.1048C54.164 49.6631 54.2651 52.8818 53.7994 55.399ZM56.3474 40.3689C55.9637 40.4963 55.5683 40.6193 55.1671 40.7394C54.184 37.6876 52.9947 34.7061 51.6073 31.8156C52.9426 28.9636 54.0854 26.0254 55.028 23.0207C55.747 23.2301 56.4455 23.4498 57.1176 23.6826C63.6223 25.926 67.5907 29.2471 67.5907 31.7995C67.5907 34.5232 63.3045 38.0581 56.3474 40.3689Z" fill="#3BE6F1"/>
<path id="Vector_2" d="M35.4481 38.0904C36.6943 38.0944 37.9138 37.7286 38.9519 37.0391C39.9901 36.3497 40.8004 35.3677 41.2801 34.2175C41.7598 33.0673 41.8875 31.8006 41.6468 30.5778C41.4062 29.355 40.8081 28.2311 39.9283 27.3485C39.0485 26.4658 37.9266 25.8641 36.7046 25.6194C35.4826 25.3748 34.2155 25.4983 33.0637 25.9743C31.9119 26.4503 30.9273 27.2573 30.2345 28.2932C29.5417 29.3292 29.1719 30.5474 29.1719 31.7936C29.1702 32.6193 29.3312 33.4372 29.6457 34.2006C29.9603 34.964 30.4222 35.6579 31.005 36.2427C31.5879 36.8275 32.2803 37.2917 33.0427 37.6087C33.8051 37.9257 34.6224 38.0894 35.4481 38.0904Z" fill="#3BE6F1"/>
</g>
</svg>
