<svg width="47" height="44" viewBox="0 0 47 44" fill="none" xmlns="http://www.w3.org/2000/svg">
<path id="Vector" d="M3.32892 25.7024V29.7641C3.32892 32.2916 3.32892 33.5554 3.82833 34.5208C4.26759 35.3699 4.96854 36.0604 5.8307 36.4929C6.81082 36.9848 8.09389 36.9848 10.66 36.9848H33.6718C34.3172 36.9848 34.64 36.9848 34.9561 37.0284C35.2368 37.0672 35.5133 37.1315 35.7818 37.2204C36.0844 37.3206 36.3731 37.4628 36.9504 37.7471L44.5663 41.4978V12.6148C44.5663 10.0873 44.5663 8.8235 44.0668 7.85813C43.6276 7.00894 42.9266 6.31855 42.0645 5.88589C41.0844 5.394 39.8013 5.394 37.2352 5.394H26.2385M15.0617 5.12024C17.7457 7.76387 17.7457 12.0501 15.0617 14.6937C12.3776 17.3373 8.02597 17.3373 5.34194 14.6937C2.65792 12.0501 2.65792 7.76387 5.34194 5.12024C8.02597 2.4766 12.3776 2.4766 15.0617 5.12024Z" stroke="#4452FE" stroke-width="4.79504" stroke-linecap="round" stroke-linejoin="round"/>
</svg>
